<svg width="91" height="52" viewBox="0 0 91 52" fill="none" xmlns="http://www.w3.org/2000/svg">
<path fill-rule="evenodd" clip-rule="evenodd" d="M0 20V40H3H6V22.5V5H25C25 5 25 6 25 2.5V0H12.5H0V20ZM17 12.709C12.51 14.36 10.228 20.828 13.116 23.716C13.937 24.537 13.805 25.441 12.616 27.138C10.245 30.522 10.145 34.2109 13.116 36.9999C15.244 38.9969 16.926 40.026 21.672 40C25.401 39.979 28.617 38.825 30.326 37.706C35 35.9999 30.609 33.5108 37 38.4999C41.742 41.0409 45.315 40.5519 49.5 37.9999C55.009 34.6419 56.442 25.918 53.503 18.75C52.911 17.305 53.327 17 55.893 17H59L59.004 24.25C59.009 33.495 61.091 37.348 67.047 39.132C70.458 40.154 72.077 40.315 75.5 39.132C81.497 37.058 82.996 33.025 82.998 21.184L83 11.867L80 12H77.5L77.21 21.966C76.886 32.504 75.681 35 70.918 35C65.9 35 64 31.118 64 20.865V12H52.401C36.5 10.4999 30.5 14.8369 30.5 26.4999C30 31.4999 34 29.9999 28.05 33.474C26.427 34.313 23.557 35 21.672 35C14.637 35 14.5 27.4999 21 27.4999C26.5 27.4999 25.288 27.4999 25.5 25.4999C25.8162 22.5166 25.1083 22.9999 21 22.9999C16.8917 22.9999 16.5 21.9999 16.5 19.9999C16.021 16.6349 20.292 15.471 25.288 16.968C25.288 16.968 29 19.4999 30.125 16.832C31.401 14.82 31.219 14.421 28.453 13.161C25.84 11.97 19.672 11.727 17 12.709ZM47.499 18.999C51.797 23.748 48.785 35.016 43.227 34.985C38.367 34.957 36 31.709 36 25.066C36 17.979 43.158 14.202 47.499 18.999Z" fill="#0054ae"/>
<path d="M86.4999 47.0009V31.0009H90.9999V52.0009H55.9999V47.0009H86.4999Z" fill="#3BC1CD"/>
</svg>
